<svg width="236" height="172" viewBox="0 0 236 172" fill="none" xmlns="http://www.w3.org/2000/svg">
    <path d="M140.441 112.152C142.521 112.152 144.254 112.325 145.641 112.672C147.027 112.949 148.102 113.469 148.865 114.232C149.697 114.925 150.251 115.757 150.529 116.728C150.875 117.699 151.049 118.912 151.049 120.368C151.049 123.904 149.939 126.227 147.721 127.336C145.502 128.445 141.654 129 136.177 129H97.1765C95.2352 129 93.2592 128.445 91.2485 127.336C89.3072 126.157 87.6779 124.563 86.3605 122.552C85.0432 120.472 84.3845 118.288 84.3845 116C84.3845 113.92 84.4885 112.221 84.6965 110.904C84.9739 109.517 85.5632 108.096 86.4645 106.64C87.3659 105.184 88.1632 104.04 88.8565 103.208C89.6192 102.307 90.9712 100.851 92.9125 98.84L119.433 74.712H98.3205C93.6752 74.712 90.3125 74.0533 88.2325 72.736C86.1525 71.3493 85.1125 69.0613 85.1125 65.872C85.1125 62.8907 85.9445 60.8107 87.6085 59.632C89.3419 58.384 91.8725 57.76 95.2005 57.76H137.737C139.817 57.76 141.654 58.1413 143.249 58.904C144.843 59.5973 146.057 60.5333 146.889 61.712C147.721 62.8213 148.345 63.9307 148.761 65.04C149.177 66.1493 149.385 67.1893 149.385 68.16C149.385 69.408 149.35 70.5173 149.281 71.488C149.211 72.4587 149.003 73.3947 148.657 74.296C148.379 75.128 148.171 75.7867 148.033 76.272C147.894 76.7573 147.478 77.416 146.785 78.248C146.161 79.08 145.71 79.6347 145.433 79.912C145.155 80.1893 144.497 80.8827 143.457 81.992C142.417 83.032 141.689 83.76 141.273 84.176L110.905 112.152H140.441Z" fill="currentColor"/>
    <path d="M46.109 56.088L46.4033 56.0221L46.4823 55.7311C50.8982 39.4806 59.7246 26.3305 72.969 16.2648C86.2146 6.19816 101.219 1.16669 118 1.16669C138.669 1.16669 156.186 8.36003 170.58 22.7536C184.973 37.1471 192.166 54.6637 192.166 75.3334V75.7787L192.609 75.83C204.755 77.2382 214.819 82.469 222.825 91.5311C230.833 100.595 234.833 111.188 234.833 123.333C234.833 136.536 230.218 147.741 220.98 156.98C211.741 166.218 200.535 170.833 187.333 170.833H59.3332C43.2846 170.833 29.5882 165.283 18.2159 154.176C6.84654 143.071 1.1665 129.511 1.1665 113.467C1.1665 99.7089 5.30867 87.461 13.5959 76.7052C21.8792 65.9545 32.7105 59.085 46.109 56.088ZM59.3332 150.5H187.333C194.929 150.5 201.368 147.872 206.62 142.62C211.872 137.368 214.5 130.929 214.5 123.333C214.5 115.738 211.872 109.298 206.62 104.046C201.368 98.7946 194.929 96.1667 187.333 96.1667H171.833V75.3334C171.833 60.4457 166.581 47.7406 156.087 37.2465C145.593 26.7524 132.888 21.5 118 21.5C103.112 21.5 90.4071 26.7524 79.9129 37.2465C69.5365 47.6229 64.285 60.161 64.1685 74.8334H59.3332C48.8895 74.8334 39.9623 78.5304 32.5796 85.9131C25.1969 93.2958 21.4998 102.223 21.4998 112.667C21.4998 123.11 25.1969 132.038 32.5796 139.42C39.9623 146.803 48.8895 150.5 59.3332 150.5Z" fill="currentColor" stroke="currentColor"/>
</svg>
