<svg viewBox="0 0 25 25" fill="none" xmlns="http://www.w3.org/2000/svg">
    <mask id="mask0_64_378" style="mask-type:alpha" maskUnits="userSpaceOnUse" x="0" y="0" width="25" height="25">
        <rect x="0.064209" y="0.0850296" width="24" height="24" fill="#D9D9D9" />
    </mask>
    <g mask="url(#mask0_64_378)">
        <path
            d="M1.06421 21.085L12.0642 2.08503L23.0642 21.085H1.06421ZM4.51421 19.085H19.6142L12.0642 6.08503L4.51421 19.085ZM12.0642 18.085C12.3475 18.085 12.585 17.9892 12.7767 17.7975C12.9684 17.6059 13.0642 17.3684 13.0642 17.085C13.0642 16.8017 12.9684 16.5642 12.7767 16.3725C12.585 16.1809 12.3475 16.085 12.0642 16.085C11.7809 16.085 11.5434 16.1809 11.3517 16.3725C11.16 16.5642 11.0642 16.8017 11.0642 17.085C11.0642 17.3684 11.16 17.6059 11.3517 17.7975C11.5434 17.9892 11.7809 18.085 12.0642 18.085ZM11.0642 15.085H13.0642V10.085H11.0642V15.085Z"
            fill="currentColor" />
    </g>
</svg>