<svg viewBox="0 0 32 32" xmlns="http://www.w3.org/2000/svg">
    <path d="m20 4h7v2h-7z" fill="currentColor" />
    <path d="m20 10h10v2h-10z" fill="currentColor" />
    <path d="m20 16h7v2h-7z" fill="currentColor" />
    <path d="m12 23a3 3 0 0 1 -6 0z" fill="currentColor" />
    <path fill="currentColor"
        d="m30 22h-14.0808a7.0107 7.0107 0 0 0 -1.9192-3.8892v-11.1108a5 5 0 0 0 -10 0v11.1108a6.9946 6.9946 0 1 0 11.92 5.8892h14.08zm-21 6a4.9933 4.9933 0 0 1 -3.332-8.7183l.332-.2983v-11.9834a3 3 0 0 1 6 0v11.9834l.332.2983a4.9933 4.9933 0 0 1 -3.332 8.7183z" />
    <path d="m0 0h32v32h-32z" fill="none" />
</svg>